<svg width="51" height="48" viewBox="0 0 51 48" fill="none" xmlns="http://www.w3.org/2000/svg">
<g clip-path="url(#clip0_1309_6130)">
<path d="M41.1824 47.9525H9.77386C4.38478 47.9525 0.000488281 43.8173 0.000488281 38.7341V9.21938C0.000488281 4.13624 4.38463 0.000976562 9.77386 0.000976562H41.1825C46.5715 0.000976562 50.9559 4.13624 50.9559 9.21938V38.7341C50.9559 43.8173 46.5715 47.9525 41.1824 47.9525ZM9.77386 1.13989C5.01273 1.13989 1.13925 4.7642 1.13925 9.21938V38.7341C1.13925 43.1892 5.01273 46.8136 9.77386 46.8136H41.1825C45.9437 46.8136 49.8171 43.1892 49.8171 38.7341V9.21938C49.8171 4.76435 45.9437 1.13989 41.1825 1.13989H9.77386Z" fill="#0A090A"/>
<path d="M18.1576 8.49463L27.616 8.51701C29.5927 8.50214 31.0688 8.81769 32.0437 9.46367C33.2344 10.2555 33.8295 11.6179 33.8295 13.5509C33.8295 16.7335 32.3534 18.5365 29.4015 18.9596V19.0042C30.7032 19.3285 31.3612 20.4063 31.376 22.2376C31.376 23.1756 31.341 24.3771 31.2708 25.8422C31.2708 26.8248 31.4787 27.6749 31.895 28.3925H26.7122C26.4702 28.1301 26.3493 27.5957 26.3493 26.7889C26.4484 25.4402 26.498 24.3337 26.498 23.4699C26.498 21.7251 25.6596 20.8528 23.9828 20.8528H20.6292L19.1666 27.9099H14.1182L18.1576 8.49463ZM26.1533 12.541H22.4369L21.4677 17.2258H25.4891C27.7371 17.2258 28.868 16.3388 28.8827 14.5642C28.8829 13.2155 27.9729 12.541 26.1533 12.541Z" fill="#0A090A"/>
<path d="M32.5815 28.3701L36.3235 21.8848L37.3324 28.4149H43.7165L37.9567 32.5503L38.8789 39.0356L33.8919 35.1231L27.1884 39.1917L30.3241 32.2868L26.6694 28.3518L32.5815 28.3701ZM49.6386 45.4751C49.8459 45.4751 50.048 45.5295 50.2454 45.6383C50.4429 45.7468 50.5967 45.9026 50.7065 46.1051C50.8169 46.3075 50.8719 46.5185 50.8719 46.7383C50.8719 46.9559 50.8178 47.165 50.709 47.3656C50.6048 47.562 50.4464 47.7243 50.2526 47.8333C50.0571 47.9445 49.8523 47.9997 49.6383 47.9997C49.4249 47.9997 49.2202 47.9442 49.0242 47.8333C48.8303 47.7242 48.6716 47.562 48.567 47.3656C48.4581 47.165 48.4034 46.9556 48.4034 46.7383C48.4034 46.5185 48.4589 46.3075 48.5695 46.1051C48.6804 45.9026 48.8343 45.747 49.0317 45.6383C49.2293 45.5294 49.4317 45.4751 49.6386 45.4751ZM49.6386 45.6841C49.4653 45.6841 49.2965 45.7296 49.1325 45.8206C48.9692 45.9107 48.8354 46.0459 48.7471 46.2102C48.6544 46.3793 48.608 46.5552 48.608 46.738C48.608 46.9199 48.6537 47.0942 48.7447 47.2609C48.8326 47.4243 48.9649 47.5595 49.1265 47.6508C49.29 47.7438 49.4605 47.7905 49.6385 47.7905C49.8161 47.7905 49.9869 47.7438 50.1506 47.6508C50.312 47.5597 50.4442 47.4244 50.5315 47.2609C50.6221 47.0942 50.6673 46.92 50.6673 46.738C50.6673 46.555 50.621 46.3793 50.5291 46.2102C50.4413 46.0457 50.3074 45.9103 50.1439 45.8206C49.9796 45.7296 49.811 45.6841 49.6386 45.6841ZM49.0973 47.4359V46.0774H49.5536C49.7097 46.0774 49.8225 46.0899 49.8921 46.115C49.9621 46.1401 50.0176 46.1839 50.0589 46.2464C50.1005 46.3089 50.1212 46.3751 50.1212 46.4454C50.1212 46.5447 50.0866 46.6312 50.0173 46.7046C49.9482 46.7782 49.8562 46.8194 49.7416 46.8284C49.7885 46.8487 49.8262 46.8725 49.8543 46.9005C49.9081 46.9539 49.9732 47.0438 50.0507 47.1696L50.2127 47.4358H49.951L49.8334 47.2216C49.7408 47.0534 49.666 46.9478 49.6093 46.9054C49.57 46.874 49.5128 46.8584 49.4374 46.8584H49.3115V47.4358H49.0973V47.4359ZM49.3115 46.6711H49.5716C49.6961 46.6711 49.7809 46.6522 49.8261 46.6141C49.8711 46.5765 49.8938 46.526 49.8938 46.4636C49.8943 46.4251 49.8828 46.3874 49.8611 46.3557C49.8386 46.3235 49.807 46.2987 49.7703 46.2847C49.7316 46.2692 49.6601 46.2611 49.5554 46.2611H49.3115V46.6711Z" fill="#0A090A"/>
<path d="M36.9442 32.0862L40.7696 29.3614H36.5377L35.8046 24.6357L33.1188 29.317H28.8433L31.4419 32.1086L29.2934 36.7936L33.9572 33.9797L37.6339 36.8604L36.9442 32.0862Z" fill="#0A090A"/>
</g>
<defs>
<clipPath id="clip0_1309_6130">
<rect width="50.9554" height="48" fill="white"/>
</clipPath>
</defs>
</svg>
